<svg xmlns="http://www.w3.org/2000/svg" xmlns:xlink="http://www.w3.org/1999/xlink" x="0px" y="0px" style="enable-background:new 0 0 100 100;" version="1.1" viewBox="0 0 100 100" xml:space="preserve">
    <path d="M87.8,68c-4.6-6.7-20.5-10.9-27-15.3c5.5-5.6,9.7-15,9.2-24.8C69.5,16.9,61.3,8,50.4,7.9c0,0-0.2,0-0.2,0v0  C39.3,8,31,16.9,30.5,27.8C30,37.7,34.2,47,39.7,52.7c-6.5,4.4-22.4,8.7-27,15.3c-5.8,8.4-3.6,13-3,15.5c0,0,0,0,0,0  c0,5.2,18.2,9.4,40.6,9.4c21.7,0,39.3-3.9,40.5-8.9h0C90.7,84,94.4,77.5,87.8,68z"/>
</svg>
