<?xml version="1.0" encoding="utf-8"?>
<!-- Generator: Adobe Illustrator 21.0.2, SVG Export Plug-In . SVG Version: 6.00 Build 0)  -->
<svg version="1.1" id="Слой_1" xmlns="http://www.w3.org/2000/svg" xmlns:xlink="http://www.w3.org/1999/xlink" x="0px" y="0px"
	 viewBox="0 0 100 100" style="enable-background:new 0 0 100 100;" xml:space="preserve">
<path d="M37.8,13.4c0,6.6-5.3,11.9-11.9,11.9S14,20,14,13.4S19.3,1.5,25.9,1.5l0,0C32.5,1.5,37.8,6.8,37.8,13.4z"/>
<path d="M16.4,26.8h3.1c0.9,0,1.7,0.4,2.3,1.1l4,5l4-5c0.6-0.7,1.4-1.1,2.3-1.1h4c1.6,0,3.2,0.6,4.4,1.6l8.8,7.3l8.8-6.9
	c3-2.4,7.4-1.8,9.7,1.2c0.2,0.2,0.3,0.4,0.5,0.7c1.8,3.1,1.1,7-1.8,9.2L53.6,50c-2.6,2-6.2,2-8.7-0.1l-4.3-3.6l-3.9,29.4l-1.9,17.6
	c-0.3,2.9-2.8,5.1-5.7,5.1h-6.5c-2.9,0-5.4-2.2-5.7-5.1L13,64.5c-2.7-1.5-4.5-4.2-4.9-7.3L5.6,39c-0.7-6,3.6-11.4,9.5-12.1
	C15.6,26.8,16,26.8,16.4,26.8z"/>
<rect x="58.9" y="4.8" width="15.5" height="15.5"/>
<circle cx="86.9" cy="31.8" r="8.7"/>
<polygon points="74.4,62.6 64.7,62.6 69.5,54.2 74.4,45.8 79.2,54.2 84.1,62.6 "/>
</svg>
